<?xml version="1.0" encoding="UTF-8"?>
<svg width="50px" height="50px" viewBox="0 0 50 50" version="1.1" xmlns="http://www.w3.org/2000/svg" xmlns:xlink="http://www.w3.org/1999/xlink">
    <!-- Generator: Sketch 57.1 (83088) - https://sketch.com -->
    <title>ICON - FB</title>
    <desc>Created with Sketch.</desc>
    <g id="Symbols" stroke="none" stroke-width="1" fill="none" fill-rule="evenodd">
        <g id="ICON---FB" fill="#FFFFFF" fill-rule="nonzero">
            <g id="Shape">
                <path d="M25,0 C11.2,0 0,11.2 0,25 C0,38.8 11.2,50 25,50 C38.8,50 50,38.8 50,25 C50,11.2 38.8,0 25,0 Z M25,47 C12.8,47 3,37.2 3,25 C3,12.8 12.8,3 25,3 C37.2,3 47,12.8 47,25 C47,37.2 37.2,47 25,47 Z"></path>
                <path d="M22.1,36 L26.6,36 L26.6,25 L29.6,25 L30,21.2 L26.6,21.2 L26.6,19.3 C26.6,18.3 26.7,17.8 28.1,17.8 L30,17.8 L30,14 L27,14 C23.4,14 22.1,15.8 22.1,18.9 L22.1,21.2 L19.8,21.2 L19.8,25 L22.1,25 C22.1,25 22.1,36 22.1,36 Z"></path>
            </g>
        </g>
    </g>
</svg>