<?xml version="1.0" encoding="UTF-8"?>
<svg width="36px" height="36px" viewBox="0 0 36 36" version="1.1" xmlns="http://www.w3.org/2000/svg" xmlns:xlink="http://www.w3.org/1999/xlink">
    <!-- Generator: Sketch 57.1 (83088) - https://sketch.com -->
    <title>ICON - FB Copy 2</title>
    <desc>Created with Sketch.</desc>
    <g id="Page-1" stroke="none" stroke-width="1" fill="none" fill-rule="evenodd">
        <g id="CHE---DOCUMENTATION" transform="translate(-653.000000, -3017.000000)" fill="#FFFFFF">
            <g id="Group-15-Copy" transform="translate(550.000000, 2997.000000)">
                <g id="ICON---LinkedIn" transform="translate(103.000000, 20.000000)">
                    <g>
                        <path d="M10.08,14.472 L10.08,24.912 L13.464,24.912 L13.464,14.472 L10.08,14.472 Z M12.024,9.36 C10.872,9.36 10.08,10.152 10.08,11.16 C10.08,12.168 10.8,12.96 11.952,12.96 L11.952,12.96 C13.104,12.96 13.896,12.168 13.896,11.16 C13.896,10.152 13.176,9.36 12.024,9.36 Z M22.032,14.472 C20.232,14.472 19.44,15.48 19.008,16.2 L19.008,14.688 L15.624,14.688 C15.696,15.696 15.624,25.128 15.624,25.128 L19.008,25.128 L19.008,19.296 C19.008,19.008 19.008,18.648 19.152,18.432 C19.368,17.784 19.944,17.136 20.88,17.136 C22.104,17.136 22.608,18.072 22.608,19.512 L22.608,25.2 L25.92,25.2 L25.92,19.224 C25.92,15.984 24.264,14.472 22.032,14.472 Z" id="Oval-1" fill-rule="nonzero"></path>
                        <path d="M18,0 C8.064,0 0,8.064 0,18 C0,27.936 8.064,36 18,36 C27.936,36 36,27.936 36,18 C36,8.064 27.936,0 18,0 Z M18,33.84 C9.216,33.84 2.16,26.784 2.16,18 C2.16,9.216 9.216,2.16 18,2.16 C26.784,2.16 33.84,9.216 33.84,18 C33.84,26.784 26.784,33.84 18,33.84 Z" id="Shape" fill-rule="nonzero"></path>
                    </g>
                </g>
            </g>
        </g>
    </g>
</svg>