<?xml version="1.0" encoding="UTF-8"?>
<svg width="24px" height="24px" viewBox="0 0 24 24" version="1.1" xmlns="http://www.w3.org/2000/svg" xmlns:xlink="http://www.w3.org/1999/xlink">
    <!-- Generator: Sketch 57.1 (83088) - https://sketch.com -->
    <title>ICON-PDF-WHITE</title>
    <desc>Created with Sketch.</desc>
    <g id="ICON-PDF-WHITE" stroke="none" stroke-width="1" fill="none" fill-rule="evenodd">
        <path d="M15.5826087,18.8475362 L15.5826087,22.3675362 C15.5826087,23.257971 14.8405797,24 13.9501449,24 L1.63246377,24 C0.742028986,24 0,23.257971 0,22.3675362 L0,1.63246377 C0,0.742028986 0.742028986,0 1.63246377,0 L9.79478261,0 L9.79478261,4.8973913 C9.79478261,5.78782609 10.5368116,6.52985507 11.4272464,6.52985507 L15.5826087,6.52985507 L15.5826087,8.16231884 L8.16231884,8.16231884 C6.82666667,8.16231884 5.71362319,9.27536232 5.71362319,10.6110145 L5.71362319,16.3246377 C5.71362319,17.6602899 6.82666667,18.7733333 8.16231884,18.7733333 L15.5826087,18.7733333 L15.5826087,18.8475362 Z" id="Shape" fill="#FFFFFF" fill-rule="nonzero"></path>
        <path d="M10.6110145,0 L10.6110145,4.8973913 C10.6110145,5.3426087 10.982029,5.71362319 11.4272464,5.71362319 L15.5826087,5.71362319 L10.6110145,0 L10.6110145,0 Z" id="Shape" fill="#FFFFFF" fill-rule="nonzero"></path>
        <path d="M10.6110145,11.4272464 L8.97855072,11.4272464 L8.97855072,13.0597101 L10.6110145,13.0597101 C11.0562319,13.0597101 11.4272464,12.6886957 11.4272464,12.2434783 C11.4272464,11.7982609 11.1304348,11.4272464 10.6110145,11.4272464 Z" id="Shape" fill="#FFFFFF" fill-rule="nonzero"></path>
        <path d="M15.5826087,11.4272464 L13.9501449,11.4272464 L13.9501449,15.5826087 L15.5826087,15.5826087 C16.0278261,15.5826087 16.3988406,15.2115942 16.3988406,14.7663768 L16.3988406,12.3176812 C16.3988406,11.7982609 16.0278261,11.4272464 15.5826087,11.4272464 Z" id="Shape" fill="#FFFFFF" fill-rule="nonzero"></path>
        <path d="M22.3675362,8.97855072 L8.16231884,8.97855072 C7.27188406,8.97855072 6.52985507,9.72057971 6.52985507,10.6110145 L6.52985507,16.3246377 C6.52985507,17.2150725 7.27188406,17.9571014 8.16231884,17.9571014 L22.3675362,17.9571014 C23.257971,17.9571014 24,17.2150725 24,16.3246377 L24,10.6110145 C24,9.72057971 23.257971,8.97855072 22.3675362,8.97855072 Z M10.6110145,13.9501449 L8.97855072,13.9501449 L8.97855072,16.3988406 L8.16231884,16.3988406 L8.16231884,12.3176812 L8.16231884,10.6852174 L10.6110145,10.6852174 C11.5014493,10.6852174 12.2434783,11.4272464 12.2434783,12.3176812 C12.3176812,13.2081159 11.5756522,13.9501449 10.6110145,13.9501449 Z M17.2150725,14.7663768 C17.2150725,15.6568116 16.4730435,16.3988406 15.5826087,16.3988406 L13.133913,16.3988406 L13.133913,10.6852174 L15.5826087,10.6852174 C16.4730435,10.6852174 17.2150725,11.4272464 17.2150725,12.3176812 L17.2150725,14.7663768 Z M22.1124638,11.4272464 L18.8475362,11.4272464 L18.8475362,13.0597101 L21.2962319,13.0597101 L21.2962319,13.875942 L18.8475362,13.875942 L18.8475362,16.3246377 L18.0313043,16.3246377 L18.0313043,10.6110145 L22.1124638,10.6110145 L22.1124638,11.4272464 L22.1124638,11.4272464 Z" id="Shape" fill="#FFFFFF" fill-rule="nonzero"></path>
        <path d="M15.5826087,18.8475362 L15.5826087,22.3675362 C15.5826087,23.257971 14.8405797,24 13.9501449,24 L1.63246377,24 C0.742028986,24 0,23.257971 0,22.3675362 L0,1.63246377 C0,0.742028986 0.742028986,0 1.63246377,0 L9.79478261,0 L9.79478261,4.8973913 C9.79478261,5.78782609 10.5368116,6.52985507 11.4272464,6.52985507 L15.5826087,6.52985507 L15.5826087,8.16231884 L8.16231884,8.16231884 C6.82666667,8.16231884 5.71362319,9.27536232 5.71362319,10.6110145 L5.71362319,16.3246377 C5.71362319,17.6602899 6.82666667,18.7733333 8.16231884,18.7733333 L15.5826087,18.7733333 L15.5826087,18.8475362 Z" id="Shape" fill="#FFFFFF" fill-rule="nonzero"></path>
        <path d="M10.6110145,0 L10.6110145,4.8973913 C10.6110145,5.3426087 10.982029,5.71362319 11.4272464,5.71362319 L15.5826087,5.71362319 L10.6110145,0 L10.6110145,0 Z" id="Shape" fill="#FFFFFF" fill-rule="nonzero"></path>
        <path d="M10.6110145,11.4272464 L8.97855072,11.4272464 L8.97855072,13.0597101 L10.6110145,13.0597101 C11.0562319,13.0597101 11.4272464,12.6886957 11.4272464,12.2434783 C11.4272464,11.7982609 11.1304348,11.4272464 10.6110145,11.4272464 Z" id="Shape" fill="#FFFFFF" fill-rule="nonzero"></path>
        <path d="M15.5826087,11.4272464 L13.9501449,11.4272464 L13.9501449,15.5826087 L15.5826087,15.5826087 C16.0278261,15.5826087 16.3988406,15.2115942 16.3988406,14.7663768 L16.3988406,12.3176812 C16.3988406,11.7982609 16.0278261,11.4272464 15.5826087,11.4272464 Z" id="Shape" fill="#FFFFFF" fill-rule="nonzero"></path>
        <path d="M22.3675362,8.97855072 L8.16231884,8.97855072 C7.27188406,8.97855072 6.52985507,9.72057971 6.52985507,10.6110145 L6.52985507,16.3246377 C6.52985507,17.2150725 7.27188406,17.9571014 8.16231884,17.9571014 L22.3675362,17.9571014 C23.257971,17.9571014 24,17.2150725 24,16.3246377 L24,10.6110145 C24,9.72057971 23.257971,8.97855072 22.3675362,8.97855072 Z M10.6110145,13.9501449 L8.97855072,13.9501449 L8.97855072,16.3988406 L8.16231884,16.3988406 L8.16231884,12.3176812 L8.16231884,10.6852174 L10.6110145,10.6852174 C11.5014493,10.6852174 12.2434783,11.4272464 12.2434783,12.3176812 C12.3176812,13.2081159 11.5756522,13.9501449 10.6110145,13.9501449 Z M17.2150725,14.7663768 C17.2150725,15.6568116 16.4730435,16.3988406 15.5826087,16.3988406 L13.133913,16.3988406 L13.133913,10.6852174 L15.5826087,10.6852174 C16.4730435,10.6852174 17.2150725,11.4272464 17.2150725,12.3176812 L17.2150725,14.7663768 Z M22.1124638,11.4272464 L18.8475362,11.4272464 L18.8475362,13.0597101 L21.2962319,13.0597101 L21.2962319,13.875942 L18.8475362,13.875942 L18.8475362,16.3246377 L18.0313043,16.3246377 L18.0313043,10.6110145 L22.1124638,10.6110145 L22.1124638,11.4272464 L22.1124638,11.4272464 Z" id="Shape" fill="#FFFFFF" fill-rule="nonzero"></path>
    </g>
</svg>