<?xml version="1.0" encoding="UTF-8"?>
<svg width="20px" height="20px" viewBox="0 0 20 20" version="1.1" xmlns="http://www.w3.org/2000/svg" xmlns:xlink="http://www.w3.org/1999/xlink">
    <!-- Generator: Sketch 57.1 (83088) - https://sketch.com -->
    <title>search</title>
    <desc>Created with Sketch.</desc>
    <g id="Page-1" stroke="none" stroke-width="1" fill="none" fill-rule="evenodd">
        <g id="CHE---SEARCH-BAR---XL-SCREEN" transform="translate(-1295.000000, -92.000000)" fill="#FFFFFF" fill-rule="nonzero">
            <g id="Group-9" transform="translate(1285.000000, 82.000000)">
                <path d="M22.5333333,24.4 C21.2666667,25.3333333 19.6666667,25.8666667 17.9333333,25.8666667 C13.5333333,25.8666667 10,22.3333333 10,17.9333333 C10,13.5333333 13.5333333,10 17.9333333,10 C22.3333333,10 25.8666667,13.5333333 25.8666667,17.9333333 C25.8666667,19.6666667 25.3333333,21.2666667 24.4,22.5333333 L29.6,27.7333333 C30.1333333,28.2666667 30.1333333,29.0666667 29.6,29.6 L29.6,29.6 C29.0666667,30.1333333 28.2666667,30.1333333 27.7333333,29.6 L22.5333333,24.4 L22.5333333,24.4 Z M17.9333333,24 C21.2666667,24 24,21.2666667 24,17.9333333 C24,14.6 21.2666667,11.8666667 17.9333333,11.8666667 C14.6,11.8666667 11.8666667,14.6 11.8666667,17.9333333 C11.8666667,21.2666667 14.6,24 17.9333333,24 L17.9333333,24 Z" id="search"></path>
            </g>
        </g>
    </g>
</svg>