<?xml version="1.0" encoding="UTF-8"?>
<svg width="20px" height="20px" viewBox="0 0 20 20" version="1.1" xmlns="http://www.w3.org/2000/svg" xmlns:xlink="http://www.w3.org/1999/xlink">
    <!-- Generator: Sketch 57.1 (83088) - https://sketch.com -->
    <title>ICON - SEARCH</title>
    <desc>Created with Sketch.</desc>
    <g id="Page-1" stroke="none" stroke-width="1" fill="none" fill-rule="evenodd">
        <g id="CHE---MEGA-MENU---XL-SCREEN" transform="translate(-1305.000000, -92.000000)" fill="#D41217" fill-rule="nonzero">
            <g id="Group-3">
                <g id="ICON---SEARCH" transform="translate(1305.000000, 92.000000)">
                    <path d="M12.5333333,14.4 C11.2666667,15.3333333 9.66666667,15.8666667 7.93333333,15.8666667 C3.53333333,15.8666667 0,12.3333333 0,7.93333333 C0,3.53333333 3.53333333,0 7.93333333,0 C12.3333333,0 15.8666667,3.53333333 15.8666667,7.93333333 C15.8666667,9.66666667 15.3333333,11.2666667 14.4,12.5333333 L19.6,17.7333333 C20.1333333,18.2666667 20.1333333,19.0666667 19.6,19.6 L19.6,19.6 C19.0666667,20.1333333 18.2666667,20.1333333 17.7333333,19.6 L12.5333333,14.4 L12.5333333,14.4 Z M7.93333333,14 C11.2666667,14 14,11.2666667 14,7.93333333 C14,4.6 11.2666667,1.86666667 7.93333333,1.86666667 C4.6,1.86666667 1.86666667,4.6 1.86666667,7.93333333 C1.86666667,11.2666667 4.6,14 7.93333333,14 L7.93333333,14 Z" id="search"></path>
                </g>
            </g>
        </g>
    </g>
</svg>