<?xml version="1.0" encoding="UTF-8"?>
<svg width="24px" height="24px" viewBox="0 0 24 24" version="1.1" xmlns="http://www.w3.org/2000/svg" xmlns:xlink="http://www.w3.org/1999/xlink">
    <!-- Generator: Sketch 57.1 (83088) - https://sketch.com -->
    <title>ICON - WEBCAST WHITE</title>
    <desc>Created with Sketch.</desc>
    <g id="ICON---WEBCAST-WHITE" stroke="none" stroke-width="1" fill="none" fill-rule="evenodd">
        <path d="M2,11 C0.896149358,11 0,11.7207145 0,12.6082889 L0,22.3917111 C0,23.2812959 0.896149358,24 2,24 C3.10385064,24 4,23.2812959 4,22.3917111 L4,12.6082889 C4,11.7187041 3.10385064,11 2,11" id="Fill-1" fill="#FFFFFF"></path>
        <path d="M14.9994167,0 C13.895888,0 13,0.717 13,1.6 L13,22.4 C13,23.285 13.895888,24 14.9994167,24 C16.1029455,24 17,23.285 17,22.4 L17,1.6 C17,0.717 16.1029455,0 14.9994167,0" id="Fill-4" fill="#FFFFFF"></path>
        <path d="M22.0005833,4 C20.8970545,4 20,4.746875 20,5.66666667 L20,22.3333333 C20,23.2552083 20.8970545,24 22.0005833,24 C23.104112,24 24,23.2552083 24,22.3333333 L24,5.66666667 C24,4.746875 23.104112,4 22.0005833,4" id="Fill-7" fill="#FFFFFF"></path>
        <path d="M7,7.63636364 L7,22.3636364 C7,23.26875 7.89614936,24 9,24 C10.1038506,24 11,23.26875 11,22.3636364 L11,7.63636364 C11,6.73329545 10.1038506,6 9,6 C7.89614936,6 7,6.73329545 7,7.63636364 Z" id="Fill-9" fill="#FFFFFF"></path>
    </g>
</svg>