<?xml version="1.0" encoding="UTF-8"?>
<svg width="50px" height="50px" viewBox="0 0 50 50" version="1.1" xmlns="http://www.w3.org/2000/svg" xmlns:xlink="http://www.w3.org/1999/xlink">
    <!-- Generator: Sketch 57.1 (83088) - https://sketch.com -->
    <title>ICON - Twitter</title>
    <desc>Created with Sketch.</desc>
    <g id="ICON---Twitter" stroke="none" stroke-width="1" fill="none" fill-rule="evenodd">
        <g fill="#FFFFFF" fill-rule="nonzero">
            <path d="M24.6,19.9 L24.7,20.9 L23.8,20.8 C20.5,20.4 17.5,18.8 15,16.3 L13.8,15 L13.5,15.9 C12.8,18 13.3,20.2 14.6,21.6 C15.3,22.4 15.2,22.5 13.9,22 C13.5,21.8 13.1,21.7 13,21.8 C12.9,21.9 13.3,23.7 13.7,24.4 C14.2,25.4 15.2,26.3 16.2,26.9 L17.1,27.3 L16,27.3 C15,27.3 14.9,27.3 15,27.7 C15.4,29 16.8,30.3 18.4,30.9 L19.5,31.3 L18.5,31.9 C17,32.8 15.3,33.3 13.6,33.3 C12.8,33.3 12.1,33.4 12.1,33.5 C12.1,33.7 14.3,34.8 15.7,35.2 C19.6,36.5 24.3,35.9 27.8,33.8 C30.3,32.3 32.8,29.2 33.9,26.3 C34.5,24.7 35.2,21.9 35.2,20.5 C35.2,19.6 35.3,19.5 36.3,18.4 C36.9,17.8 37.5,17.1 37.6,16.9 C37.8,16.5 37.8,16.5 36.8,16.9 C35.2,17.5 35,17.4 35.8,16.5 C36.4,15.9 37.1,14.8 37.1,14.4 C37.1,14.3 36.8,14.4 36.5,14.6 C36.2,14.8 35.4,15.1 34.9,15.3 L33.9,15.6 L33,15 C32.5,14.7 31.8,14.3 31.4,14.1 C30.5,13.8 29,13.9 28.2,14.2 C25.9,15.1 24.5,17.4 24.6,19.9 C24.6,19.9 24.5,17.4 24.6,19.9 Z" id="Oval-1"></path>
            <path d="M25,0 C11.2,0 0,11.2 0,25 C0,38.8 11.2,50 25,50 C38.8,50 50,38.8 50,25 C50,11.2 38.8,0 25,0 Z M25,47 C12.8,47 3,37.2 3,25 C3,12.8 12.8,3 25,3 C37.2,3 47,12.8 47,25 C47,37.2 37.2,47 25,47 Z" id="Shape"></path>
        </g>
    </g>
</svg>