<?xml version="1.0" encoding="UTF-8"?>
<svg width="24px" height="24px" viewBox="0 0 24 24" version="1.1" xmlns="http://www.w3.org/2000/svg" xmlns:xlink="http://www.w3.org/1999/xlink">
    <!-- Generator: Sketch 57.1 (83088) - https://sketch.com -->
    <title>ICON - XLS WHITE</title>
    <desc>Created with Sketch.</desc>
    <g id="ICON---XLS-WHITE" stroke="none" stroke-width="1" fill="none" fill-rule="evenodd">
        <g id="Group" fill="#FFFFFF">
            <path d="M11.093472,0 L11.093472,5.331 C11.093472,5.823 11.478432,6.222 11.938272,6.222 L16.213152,6.222 L11.093472,0 Z M16.213152,20.445 L16.213152,22.224 C16.213152,23.208 15.449952,24 14.509152,24 L1.704672,24 C0.760032,24 -0.000288,23.201 -0.000288,22.215 L-0.000288,1.784 C-0.000288,0.798 0.767712,0 1.713312,0 L10.240032,0 L10.240032,5.335 C10.240032,6.323 11.006112,7.111 11.951712,7.111 L16.213152,7.111 L16.213152,8.889 L5.126112,8.889 C3.709152,8.889 2.560032,10.082 2.560032,11.555 L2.560032,17.779 C2.560032,19.251 3.699552,20.445 5.126112,20.445 L16.213152,20.445 Z" id="Fill-1"></path>
            <path d="M17.929728,14.2222 L18.775488,14.2222 C19.723968,14.2222 20.481408,15.0182 20.481408,16.0002 C20.481408,16.9892 19.715328,17.7782 18.770688,17.7782 L17.925888,17.7782 C16.978368,17.7782 16.215168,16.9812 16.215168,15.9992 L16.215168,15.9942 L17.068608,15.9942 L17.068608,16.0042 C17.068608,16.4832 17.449728,16.8892 17.920128,16.8892 L18.776448,16.8892 C19.250688,16.8892 19.628928,16.4912 19.628928,16.0002 C19.628928,15.5062 19.242048,15.1112 18.766848,15.1112 L17.921088,15.1112 C16.972608,15.1112 16.215168,14.3152 16.215168,13.3332 C16.215168,12.3452 16.981248,11.5552 17.925888,11.5552 L18.770688,11.5552 C19.718208,11.5552 20.481408,12.3512 20.481408,13.3332 L19.628928,13.3332 C19.628928,12.8472 19.246848,12.4442 18.776448,12.4442 L17.920128,12.4442 C17.445888,12.4442 17.068608,12.8422 17.068608,13.3332 C17.068608,13.8272 17.453568,14.2222 17.929728,14.2222 L17.929728,14.2222 Z M15.361728,17.7782 L11.094528,17.7782 L11.094528,11.5552 L11.948928,11.5552 L11.948928,16.8892 L15.361728,16.8892 L15.361728,17.7782 Z M10.242048,17.7782 L9.388608,17.7782 L8.108928,15.4442 L6.828288,17.7782 L5.974848,17.7782 L7.681728,14.6662 L5.974848,11.5552 L6.828288,11.5552 L8.108928,13.8892 L9.388608,11.5552 L10.242048,11.5552 L8.535168,14.6662 L10.242048,17.7782 Z M21.330048,9.7782 L5.126208,9.7782 C4.180608,9.7782 3.413568,10.5782 3.413568,11.5482 L3.413568,17.7852 C3.413568,18.7632 4.179648,19.5552 5.126208,19.5552 L21.330048,19.5552 C22.275648,19.5552 23.042688,18.7552 23.042688,17.7852 L23.042688,11.5482 C23.042688,10.5712 22.276608,9.7782 21.330048,9.7782 L21.330048,9.7782 Z" id="Fill-4"></path>
        </g>
    </g>
</svg>